<?xml version="1.0" encoding="utf-8"?>
<!-- Generator: Adobe Illustrator 27.3.1, SVG Export Plug-In . SVG Version: 6.00 Build 0)  -->
<svg version="1.1" id="SvgjsSvg1001" xmlns:svgjs="http://svgjs.com/svgjs"
	 xmlns="http://www.w3.org/2000/svg" xmlns:xlink="http://www.w3.org/1999/xlink" x="0px" y="0px" viewBox="0 0 288 288"
	 style="enable-background:new 0 0 288 288;" xml:space="preserve">
<style type="text/css">
	.st0{fill:#011627;}
</style>
<path class="st0" d="M268,243.9l-69.6-69.6c12-16.8,19-37.3,19-59.5c0-56.6-45.9-102.6-102.6-102.6S12.2,58.2,12.2,114.8
	s45.9,102.6,102.6,102.6c21.5,0,41.4-6.6,57.9-17.9l69.9,69.9c4.4,4.4,11.5,4.4,15.9,0l9.6-9.6C272.4,255.4,272.4,248.3,268,243.9z
	 M39.2,114.8c0-41.7,33.9-75.6,75.6-75.6c41.7,0,75.6,33.9,75.6,75.6s-33.9,75.6-75.6,75.6C73.1,190.4,39.2,156.5,39.2,114.8z"/>
</svg>
